<svg xmlns="http://www.w3.org/2000/svg" width="49.99" height="49.99" viewBox="0 0 49.99 49.99">
  <g id="Layer_10" data-name="Layer 10" transform="translate(-1 -1)">
    <path id="Trazado_11553" data-name="Trazado 11553" d="M27.661,50.99H24.329a5,5,0,0,1-5-4.4,21.128,21.128,0,0,1-3.249-1.333,5,5,0,0,1-6.665-.417l-2.266-2.35a5,5,0,0,1-.417-6.665A21.129,21.129,0,0,1,5.4,32.66a5,5,0,0,1-4.4-5V24.329a5,5,0,0,1,4.4-5A21.129,21.129,0,0,1,6.732,16.08a5,5,0,0,1,.417-6.665L9.5,7.149a5,5,0,0,1,6.665-.417A21.129,21.129,0,0,1,19.33,5.4a5,5,0,0,1,5-4.4h3.333a5,5,0,0,1,5,4.4A21.129,21.129,0,0,1,35.91,6.732a5,5,0,0,1,6.665.417L44.841,9.5a5,5,0,0,1,.417,6.665,21.128,21.128,0,0,1,1.333,3.249,5,5,0,0,1,4.4,4.916v3.333a5,5,0,0,1-4.4,5,21.128,21.128,0,0,1-1.333,3.249,5,5,0,0,1-.417,6.665l-2.35,2.266a5,5,0,0,1-6.665.417,21.129,21.129,0,0,1-3.249,1.333A5,5,0,0,1,27.661,50.99ZM15.847,41.542a1.566,1.566,0,0,1,.85.233,18.33,18.33,0,0,0,4.716,1.95,1.666,1.666,0,0,1,1.25,1.666v.6a1.666,1.666,0,0,0,1.666,1.666h3.333a1.666,1.666,0,0,0,1.666-1.666v-.65a1.666,1.666,0,0,1,1.25-1.666,18.329,18.329,0,0,0,4.716-1.95,1.666,1.666,0,0,1,2.016.25l.467.467a1.666,1.666,0,0,0,2.366,0l2.35-2.35a1.666,1.666,0,0,0,0-2.366l-.467-.467a1.666,1.666,0,0,1-.25-2.016,18.329,18.329,0,0,0,1.95-4.716,1.666,1.666,0,0,1,1.666-1.25h.6a1.666,1.666,0,0,0,1.666-1.666V24.329a1.666,1.666,0,0,0-1.666-1.666h-.65a1.666,1.666,0,0,1-1.666-1.25,18.329,18.329,0,0,0-1.95-4.716,1.666,1.666,0,0,1,.25-2.016l.467-.467a1.666,1.666,0,0,0,0-2.366l-2.3-2.35a1.666,1.666,0,0,0-2.366,0l-.467.467a1.666,1.666,0,0,1-2.016.25,18.33,18.33,0,0,0-4.716-1.95A1.666,1.666,0,0,1,29.328,6.6V6a1.666,1.666,0,0,0-1.666-1.666H24.329A1.666,1.666,0,0,0,22.662,6v.65a1.666,1.666,0,0,1-1.25,1.666,18.33,18.33,0,0,0-4.716,1.95,1.666,1.666,0,0,1-2.016-.25L14.214,9.5a1.666,1.666,0,0,0-2.366,0L9.5,11.848a1.666,1.666,0,0,0,0,2.366l.467.467a1.666,1.666,0,0,1,.25,2.016,18.33,18.33,0,0,0-1.95,4.716A1.666,1.666,0,0,1,6.6,22.662H6a1.666,1.666,0,0,0-1.666,1.666v3.333A1.666,1.666,0,0,0,6,29.328h.65a1.666,1.666,0,0,1,1.666,1.25,18.33,18.33,0,0,0,1.95,4.716,1.666,1.666,0,0,1-.25,2.016l-.467.467a1.666,1.666,0,0,0,0,2.366l2.3,2.35a1.666,1.666,0,0,0,2.366,0l.467-.467A1.666,1.666,0,0,1,15.847,41.542Z" transform="translate(0 0)"/>
    <path id="Trazado_11554" data-name="Trazado 11554" d="M16,23a7,7,0,1,1,7-7A7,7,0,0,1,16,23Zm0-12a5,5,0,1,0,5,5A5,5,0,0,0,16,11Z" transform="translate(9.995 9.995)"/>
  </g>
</svg>
