<svg xmlns="http://www.w3.org/2000/svg" width="49.99" height="40.624" viewBox="0 0 49.99 40.624">
  <g id="map-with-placeholder_icon-icons.com_56692" transform="translate(-0.001 -47.997)">
    <path id="Exclusión_1" data-name="Exclusión 1" d="M-902.637-4410.451h0l-12.5-6.248-12.5,6.248-12.5-6.248,9.373-18.746,6.249,6.248,9.372-6.248,9.373,6.248.762-.763,1.488,2.929-.042.043-.405.407,2.418,12.092,7.209-3.6-2.843-5.684,1.762-3.455,5.273,10.541-12.5,6.248Zm-27.264-19.723h0l-6.036,12.077,7.207,3.6,2.418-12.092-.405-.405-3.185-3.186Zm13.2-.477h0l-6.077,4.053-.4.269-2.257,11.286,8.738-4.369v-11.237Zm3.125,0h0v11.237l8.735,4.369-2.258-11.286-.4-.268-6.077-4.053Zm14.058,4.577h0l-7.1-13.917a7.728,7.728,0,0,1-.714-3.264,7.82,7.82,0,0,1,7.811-7.812,7.82,7.82,0,0,1,7.81,7.812,7.75,7.75,0,0,1-.713,3.264l-7.1,13.916Zm-3.167-17.857a2.711,2.711,0,0,0-2.4,1.176,1.969,1.969,0,0,0-.115,1.958,3.539,3.539,0,0,0,1.088,1.329,3.393,3.393,0,0,0,1.321.515c.115.025.249.059.378.093a2.164,2.164,0,0,1,1.062.777c.121.134.246.271.379.392a2.876,2.876,0,0,0,2.035.807,3.123,3.123,0,0,0,.639-.066,2.266,2.266,0,0,0,1.585-2.178,5.027,5.027,0,0,0-.8-1.872,5,5,0,0,1-.1-1.037c0-.131-.007-.28-.015-.422a2.317,2.317,0,0,0-1.185-1.778,3.077,3.077,0,0,0-.945-.368,1.139,1.139,0,0,0-.281-.041.906.906,0,0,0-.115.008,2.522,2.522,0,0,0-.914.411l-.191.115a1.316,1.316,0,0,1-.8.214c-.139,0-.278-.01-.419-.023-.077,0-.147-.01-.212-.01Zm8.694.659h-.139a2.537,2.537,0,0,0-.338.048,3.439,3.439,0,0,0-1.488.752,2,2,0,0,0-.816,1.5.735.735,0,0,0,.079.514,1.373,1.373,0,0,0,1.137.815,3.276,3.276,0,0,0,1.89-.67,3.171,3.171,0,0,0,.9-1.074,1.314,1.314,0,0,0-.193-1.442,1.106,1.106,0,0,0-.207-.207,1.345,1.345,0,0,0-.821-.23Zm-.815-4.112a2.642,2.642,0,0,0-1.214.337,3.4,3.4,0,0,0-1.505,2.034c-.138,1.44.727,1.679.736,1.681a1.15,1.15,0,0,0,.436.077,3.18,3.18,0,0,0,1.372-.431,3.455,3.455,0,0,0,1.411-1.362,1.42,1.42,0,0,0-.032-1.809,1.535,1.535,0,0,0-1.185-.529Zm-7.779-1.671a1.054,1.054,0,0,0-.13.006,1.647,1.647,0,0,0-.929.449,3.189,3.189,0,0,0-.768,2.178,2.072,2.072,0,0,0,.223,1.037,1.6,1.6,0,0,0,1.419.931h.007a1.394,1.394,0,0,0,.191.014,1.336,1.336,0,0,0,.994-.431,2.1,2.1,0,0,0,.481-.993,3.309,3.309,0,0,0-.1-2.274,2.027,2.027,0,0,0-.9-.816,1.266,1.266,0,0,0-.493-.1Zm4.122-.6a2.325,2.325,0,0,0-.408.033,2.323,2.323,0,0,0-1.394,1.282,3.842,3.842,0,0,0-.223,2.048c.249,1.127,1.014,1.248,1.331,1.248a.979.979,0,0,0,.189-.014c.791-.053,1.389-.985,1.395-.994a3.839,3.839,0,0,0,.753-1.681,1.627,1.627,0,0,0-.592-1.651,2.012,2.012,0,0,0-.978-.271Z" transform="translate(940.129 4499.063)"/>
  </g>
</svg>
