<svg xmlns="http://www.w3.org/2000/svg" width="50.49" height="46.046" viewBox="0 0 50.49 46.046">
  <g id="Grupo_3380" data-name="Grupo 3380" transform="translate(-487.508 -382.707)">
    <path id="Sustracción_2" data-name="Sustracción 2" d="M20.823,41.317a10.582,10.582,0,0,1-2.11-.212,7.354,7.354,0,0,1-5.243-7.05,16.17,16.17,0,0,1,2.649-6.064,15.937,15.937,0,0,0,.32-3.339c.011-.453.023-.919.051-1.378-.089-2.416,1.831-4.193,3.92-5.753a10.213,10.213,0,0,1,3.125-1.193,3.571,3.571,0,0,1,.926-.133,2.821,2.821,0,0,1,.4.028,8.432,8.432,0,0,1,3.034,1.34c.214.13.416.252.62.371a4.426,4.426,0,0,0,2.64.695c.463,0,.919-.034,1.385-.073.23-.013.464-.02.7-.02a9.958,9.958,0,0,1,6.758,2.36A12.448,12.448,0,0,0,26.8,39.379,9.843,9.843,0,0,1,20.823,41.317ZM9.655,32.449a10.939,10.939,0,0,1-6.25-2.177A10.223,10.223,0,0,1,.439,26.8a4.167,4.167,0,0,1,.635-4.664,3.757,3.757,0,0,1,.688-.675,4.544,4.544,0,0,1,2.73-.791c.146,0,.3,0,.448.014a8.01,8.01,0,0,1,1.112.155,11.543,11.543,0,0,1,4.927,2.436,6.433,6.433,0,0,1,2.7,4.873,2.362,2.362,0,0,1-.265,1.659A4.53,4.53,0,0,1,9.655,32.449ZM12.29,20.728a10.683,10.683,0,0,1-4.541-1.392A11.275,11.275,0,0,1,3.087,14.93,4.484,4.484,0,0,1,2.242,10.8a4.781,4.781,0,0,1,.952-1.723,5.064,5.064,0,0,1,3.92-1.711h.063a8.954,8.954,0,0,1,4.016,1.089,8.914,8.914,0,0,1,3.872,3.92,13.363,13.363,0,0,1,1.107,2.663c.238,2.444-.437,3.793-1.045,4.495a3.027,3.027,0,0,1-1.391.947A3.915,3.915,0,0,1,12.29,20.728Zm20.565-3.837A4.471,4.471,0,0,1,29.571,15.5a6.711,6.711,0,0,1-1.589-3.213,10.47,10.47,0,0,1,.318-7.36,6.6,6.6,0,0,1,2.966-2.644,4.24,4.24,0,0,1,1.642-.332,4.078,4.078,0,0,1,.423.022A5.513,5.513,0,0,1,36.4,3.423a10.179,10.179,0,0,1,2.542,7.05,6.579,6.579,0,0,1-.742,3.369,5.288,5.288,0,0,1-4.688,3.006h-.026A4.654,4.654,0,0,1,32.855,16.891ZM21.568,14.928a3.582,3.582,0,0,1-.63-.049c-2.625-.167-4.588-3.183-4.608-3.213A12.4,12.4,0,0,1,13.84,6.223a5.934,5.934,0,0,1,.787-4.128A4.048,4.048,0,0,1,15.8.884,6.7,6.7,0,0,1,19.031,0c.068,0,.139,0,.222,0A8.022,8.022,0,0,1,20.62.107c3.1.721,4.593,4.112,4.608,4.146a12.139,12.139,0,0,1,.742,6.634A5.2,5.2,0,0,1,23.9,14.255,4.245,4.245,0,0,1,21.568,14.928Z" transform="translate(487.508 382.707)"/>
    <path id="Icon_ionic-ios-add" data-name="Icon ionic-ios-add" d="M21.585,14.856H16.532V9.8a.838.838,0,0,0-1.676,0v5.053H9.8a.838.838,0,0,0,0,1.676h5.053v5.053a.838.838,0,0,0,1.676,0V16.532h5.053a.838.838,0,0,0,0-1.676Z" transform="translate(509.36 400.116)"/>
    <circle id="Elipse_92" data-name="Elipse 92" cx="12.444" cy="12.444" r="12.444" transform="translate(512.61 403.366)" fill="none" stroke="#000" stroke-width="1"/>
  </g>
</svg>
